<?xml version="1.0" standalone="no"?>
<!DOCTYPE svg PUBLIC "-//W3C//DTD SVG 20010904//EN"
 "http://www.w3.org/TR/2001/REC-SVG-20010904/DTD/svg10.dtd">
<svg version="1.0" xmlns="http://www.w3.org/2000/svg"
 width="995.000000pt" height="995.000000pt" viewBox="0 0 995.000000 995.000000"
 preserveAspectRatio="xMidYMid meet">
<metadata>
Created by potrace 1.11, written by Peter Selinger 2001-2013
</metadata>
<g transform="translate(0.000000,995.000000) scale(0.100000,-0.100000)"
fill="#000000" stroke="none">
<path d="M4840 9898 c-71 -35 -123 -92 -150 -165 -19 -51 -20 -78 -20 -508 0
-435 1 -457 21 -510 28 -76 98 -146 172 -173 150 -56 304 7 377 153 l30 60 -3
475 -2 475 -28 57 c-72 146 -253 208 -397 136z"/>
<path d="M1613 8556 c-178 -58 -261 -253 -179 -420 19 -39 100 -125 343 -367
206 -205 334 -325 363 -340 64 -33 195 -34 260 -2 107 53 168 151 168 269 0
127 -7 137 -366 497 -349 350 -370 366 -484 373 -37 2 -80 -2 -105 -10z"/>
<path d="M8193 8546 c-23 -8 -56 -23 -75 -34 -58 -36 -654 -643 -679 -692 -34
-65 -34 -194 0 -263 73 -149 255 -210 404 -136 27 13 159 137 360 338 355 353
369 372 374 491 7 205 -190 356 -384 296z"/>
<path d="M4887 8074 c-1 -1 -49 -4 -107 -8 -150 -9 -361 -39 -494 -72 -34 -8
-69 -17 -78 -19 -121 -28 -330 -99 -446 -151 -29 -13 -55 -24 -58 -24 -12 0
-252 -124 -324 -168 -221 -133 -398 -270 -585 -454 -174 -172 -278 -297 -406
-489 -49 -74 -179 -294 -179 -304 0 -1 -22 -49 -49 -106 -26 -57 -58 -131 -71
-164 -12 -33 -27 -69 -31 -80 -21 -49 -84 -255 -95 -309 -2 -10 -8 -33 -13
-50 -6 -17 -13 -44 -15 -61 -3 -16 -10 -55 -16 -85 -6 -30 -13 -73 -16 -95 -3
-22 -7 -47 -9 -55 -20 -72 -28 -551 -12 -700 15 -142 38 -275 72 -420 60 -260
182 -565 328 -820 140 -246 301 -455 512 -665 310 -311 668 -546 1062 -698
159 -62 433 -138 548 -152 11 -2 47 -8 80 -13 33 -6 89 -14 125 -17 36 -4 79
-8 95 -10 160 -21 440 -20 565 0 14 3 45 7 70 10 199 26 505 98 670 159 25 10
68 25 95 35 168 61 434 202 620 329 366 251 678 583 906 964 68 113 174 328
219 443 37 93 107 303 114 343 3 15 12 52 20 82 8 30 17 69 20 85 3 17 8 41
11 55 10 47 14 75 20 124 4 28 8 53 10 56 18 30 27 581 12 715 -22 189 -55
365 -93 505 -21 76 -74 241 -84 265 -5 11 -28 65 -50 120 -144 353 -400 727
-685 1005 -110 106 -111 108 -205 186 -450 376 -981 605 -1590 688 -92 12
-454 28 -463 20z m-663 -926 c-25 -70 -74 -249 -85 -305 -25 -141 -30 -174
-36 -258 -15 -189 -6 -424 22 -575 4 -19 8 -48 10 -63 2 -16 18 -81 35 -145
132 -494 425 -931 835 -1243 277 -212 648 -373 985 -428 165 -27 204 -30 380
-31 190 -1 355 16 515 54 11 2 41 9 67 15 27 6 88 25 138 41 50 17 92 30 95
30 13 0 -92 -229 -155 -338 -252 -440 -661 -793 -1140 -985 -123 -49 -317
-104 -455 -128 -109 -19 -168 -23 -360 -23 -262 -1 -329 4 -499 40 -961 203
-1683 990 -1806 1969 -23 179 -18 461 10 615 5 30 12 73 15 95 4 22 19 90 35
151 71 276 206 553 385 793 79 105 284 320 380 398 98 80 311 214 429 272 227
110 222 109 200 49z"/>
<path d="M233 5256 c-172 -55 -258 -244 -185 -409 29 -64 98 -130 163 -155 51
-20 75 -21 511 -21 441 -1 458 -1 513 20 68 25 137 89 168 156 33 74 31 180
-6 255 -32 65 -88 116 -159 147 -45 19 -69 20 -505 20 -352 0 -468 -3 -500
-13z"/>
<path d="M8723 5242 c-207 -73 -268 -333 -114 -491 30 -31 66 -56 101 -69 53
-20 69 -21 530 -19 l475 2 54 30 c217 120 210 419 -12 537 -42 23 -46 23 -512
25 -432 3 -474 1 -522 -15z"/>
<path d="M2169 2547 c-71 -26 -107 -59 -420 -374 -354 -356 -354 -356 -354
-488 1 -209 204 -346 404 -273 51 19 84 49 379 342 374 372 382 383 379 514
-3 122 -60 213 -167 265 -55 26 -168 34 -221 14z"/>
<path d="M7597 2535 c-173 -64 -249 -264 -161 -426 31 -56 641 -668 692 -694
48 -24 69 -28 143 -31 89 -3 173 36 229 108 70 87 86 190 47 298 -18 50 -49
84 -341 378 -365 367 -386 383 -505 381 -36 0 -83 -7 -104 -14z"/>
<path d="M4873 1416 c-93 -30 -159 -93 -194 -187 -18 -46 -19 -79 -17 -522 l3
-472 23 -43 c127 -238 458 -221 553 27 18 48 19 78 16 519 -2 458 -2 468 -24
515 -28 61 -90 123 -151 149 -58 26 -153 32 -209 14z"/>
</g>
</svg>
